<?xml version="1.0" standalone="no"?><!DOCTYPE svg PUBLIC "-//W3C//DTD SVG 1.1//EN" "http://www.w3.org/Graphics/SVG/1.1/DTD/svg11.dtd"><svg width="200" height="200" viewBox="0 0 200 200" version="1.1" xmlns="http://www.w3.org/2000/svg" xmlns:xlink="http://www.w3.org/1999/xlink"><defs><style type="text/css"><![CDATA[

]]></style></defs><g class="transform-group"><g transform="scale(0.1953125, 0.1953125)"><path d="M887.872 946.144l-747.328 0c-68.8 0-124.544-55.776-124.544-124.544l0-559.072 251.456 280.032-128.896 128.896c-16.224 16.224-43.104 53.472-20.768 58.72 13.6 3.2 42.496 16.224 58.72 0l132.096-132.096c1.472-1.472 2.976-3.072 4.48-4.704l55.808 62.144c0 0 42.816 41.504 145.312 41.504 103.136 0 145.312-41.504 145.312-41.504l52.224-57.856c0.48 0.48 0.64 0.8 1.152 1.312l127.744 127.712c15.648 15.68 41.056 15.68 56.768 0 15.68-15.648 15.68-20.32 0-36l-127.744-127.712c-5.024-5.024-11.104-8.256-17.504-10.048l260.288-288.416 0 557.12c0 68.768-55.776 124.544-124.544 124.544zM616.576 594.336c0 0-40.256 40.416-102.368 40.416-62.912 0-103.296-42.592-103.296-42.592l-386.56-423.296c-1.088-1.088-2.304-1.888-3.456-2.816 14.464-52.8 62.272-91.808 119.648-91.808l747.328 0c57.824 0 106.016 39.616 120.032 92.992-0.928 0.8-1.92 1.408-2.784 2.304l-388.512 424.768z" fill="#272636"></path></g></g></svg>