<?xml version="1.0" standalone="no"?><!DOCTYPE svg PUBLIC "-//W3C//DTD SVG 1.1//EN" "http://www.w3.org/Graphics/SVG/1.1/DTD/svg11.dtd"><svg width="200" height="200" viewBox="0 0 200 200" version="1.1" xmlns="http://www.w3.org/2000/svg" xmlns:xlink="http://www.w3.org/1999/xlink"><defs><style type="text/css"><![CDATA[

]]></style></defs><g class="transform-group"><g transform="scale(0.1953125, 0.1953125)"><path d="M511.996978 217.890277c54.596708 0 98.864499-45.098738 98.864499-100.718769 0-55.622045-44.267791-100.720783-98.864499-100.720783-54.592679 0-98.858456 45.098738-98.858456 100.720783C413.138523 172.791539 457.402285 217.890277 511.996978 217.890277zM511.996978 419.332851c-54.592679 0-98.858456 45.100752-98.858456 100.722798 0 55.62406 44.265777 100.718769 98.858456 100.718769 54.596708 0 98.864499-45.094709 98.864499-100.718769C610.86047 464.433603 566.593686 419.332851 511.996978 419.332851zM511.996978 822.215983c-54.592679 0-98.858456 45.050392-98.858456 100.722798 0 55.622045 44.265777 100.718769 98.858456 100.718769 54.596708 0 98.864499-45.096723 98.864499-100.718769C610.86047 867.266375 566.593686 822.215983 511.996978 822.215983z" fill="#272636"></path></g></g></svg>