<?xml version="1.0" standalone="no"?><!DOCTYPE svg PUBLIC "-//W3C//DTD SVG 1.1//EN" "http://www.w3.org/Graphics/SVG/1.1/DTD/svg11.dtd"><svg width="202.9296875" height="200" viewBox="0 0 202.9296875 200" version="1.1" xmlns="http://www.w3.org/2000/svg" xmlns:xlink="http://www.w3.org/1999/xlink"><defs><style type="text/css"><![CDATA[

]]></style></defs><g class="transform-group"><g transform="scale(0.1953125, 0.1953125)"><path d="M702.177364 572.637032c-4.405333 141.416823-156.3837 252.340145-345.988012 252.374938l-10.525728-0.070608c-15.666818-0.384763-30.632671-1.433652-45.774533-3.252067-0.245593 0.070608-0.490164 0.174985-0.769526 0.279363-2.832512 1.084705-7.098675 3.007497-12.169157 5.455245-9.407254 4.790096-22.590508 12.238742-38.012755 21.366633-9.651824 5.665023-19.757996 11.714809-29.898961 17.800411-20.841677 12.484336-42.383296 25.387203-60.60224 35.248805l-7.904017 4.021593c-15.141862 7.832386-27.102265 14.022365-43.291992 15.036461l-0.280386 0-0.314155 0c-2.972705 0-5.595438-0.280386-8.53335-0.909719l-2.028193-0.48914c-14.826684-3.078105-25.807782-21.612227-23.464411-33.920554 0.594541-12.413727 5.560646-21.611204 10.839883-31.333636l2.447748-4.475941c6.748704-11.57564 14.966876-24.199145 23.394826-36.857443 12.55392-18.359137 22.205745-33.396621 28.15013-43.74634C51.883671 719.578686 1.00284 642.61071 0.793062 561.586348c0-1.503237 0-3.252067 0.105401-4.79112 4.405333-141.381008 156.418492-252.305353 346.022805-252.305353l4.756327-0.034792c2.029216 0 4.092201 0.034792 6.085602 0.174985 191.773721 4.161786 343.226109 119.770827 344.519568 263.146259C702.282764 569.524135 702.282764 571.09798 702.177364 572.637032L702.177364 572.637032zM908.219043 497.976612c5.034666 8.567119 12.902868 20.772093 22.86987 35.458583 7.238868 10.839883 14.233166 21.505803 19.756973 31.017434l2.204202 4.022617c4.581342 8.393157 8.847505 16.32992 9.546424 28.324092 1.957585 9.686616-7.868201 26.297946-21.89159 29.340235l-2.062985 0.38374c-1.538029 0.420579-3.8814 0.699941-6.504134 0.699941l-0.698918-0.034792c-13.883195-0.873903-24.02416-6.119371-36.823674-12.727882l-6.748704-3.427052c-15.666818-8.462742-33.780361-19.337417-51.335179-29.829376-8.637728-5.210675-17.23964-10.350742-25.423019-15.176654-12.238742-7.238868-23.568788-13.673417-32.277124-18.079774-4.02057-2.028193-7.518231-3.602038-10.000771-4.545526l0-0.070608c-5.28026 0.629333-10.491958 1.048889-15.70161 1.468444l-11.400654 0.909719 0.629333-20.911262-0.873903-4.616134c-0.070608-0.804319-25.178449-54.448076-25.178449-54.448076 0.001023 0-70.463842-101.446483-135.297452-135.261637-64.797795-33.816177-101.06172-49.831942-101.06172-49.831942-10.281157-2.062985-20.7373-3.706415-31.368428-5.070482l-13.043061-1.678222 4.89652-11.95938c37.592177-92.109838 149.94915-155.929352 279.720749-158.761863 1.608637-0.069585 3.567245-0.069585 5.455245-0.069585l3.39226 0c161.140027 0 290.316062 94.382601 294.093085 214.888162 0.070608 1.118474 0.070608 2.657526 0.070608 3.916193C1022.98795 390.516158 980.220914 455.698716 908.219043 497.976612L908.219043 497.976612z" fill="#272636"></path></g></g></svg>