<?xml version="1.0" standalone="no"?><!DOCTYPE svg PUBLIC "-//W3C//DTD SVG 1.1//EN" "http://www.w3.org/Graphics/SVG/1.1/DTD/svg11.dtd"><svg width="200" height="200" viewBox="0 0 200 200" version="1.1" xmlns="http://www.w3.org/2000/svg" xmlns:xlink="http://www.w3.org/1999/xlink"><defs><style type="text/css"><![CDATA[

]]></style></defs><g class="transform-group"><g transform="scale(0.1953125, 0.1953125)"><path d="M155.632081 460.947254c-3.403516-7.487531-5.105275-17.358343-5.105275-29.612435 0-7.486508 2.041496-17.017582 6.125511-28.589129 4.085038-11.573593 8.848529-20.081361 14.294564-25.526373-0.679475-8.16803 0.681522-18.038842 4.085038-29.612435 3.403516-11.571546 7.827269-19.7406 13.273305-24.503067 0-53.096289 17.35732-107.892289 52.074006-164.390048 34.715663-56.497759 75.897597-96.318696 123.545804-119.462812 53.095265-25.183566 114.699322-37.776372 184.810123-37.776372 51.054793 0 101.764732 10.552334 152.135956 31.653931 18.379603 7.486508 35.398208 16.337083 51.05377 26.545586 15.657608 10.211573 29.27065 21.101597 40.842197 32.67519 11.571546 11.57257 21.783119 24.50409 30.632671 38.799678 8.849552 14.294564 17.017582 28.247344 24.505114 41.862433 7.485485 13.614066 13.613042 29.611411 18.378579 47.988967 4.764514 18.379603 9.530051 35.397185 14.294564 51.052746 4.764514 15.657608 8.849552 34.376948 12.254092 56.158021l1.02126 3.062755c21.100574 31.314193 31.652907 59.561537 31.652907 84.747149 0 5.446036-1.701758 13.274328-5.105275 23.484877-3.403516 10.209526-5.103228 17.356296-5.103228 21.441335 0 0 0 0.680499 0 2.041496 0 1.362021 0.679475 2.382257 2.040473 3.063779 1.362021 0.679475 1.701758 1.019213 1.020236 1.019213 29.27065 43.564191 52.41579 84.406388 69.433372 122.525568 17.018605 38.119179 25.184589 77.600379 24.50409 118.441553 0 16.337083-3.742231 35.398208-11.231809 57.178257-7.487531 21.783119-18.038842 32.67519-31.652907 32.67519-3.403516 0-7.14677-1.360997-11.232832-4.084015-4.084015-2.723018-7.487531-6.124488-10.211573-10.210549-2.721994-4.085038-6.466272-8.847505-11.232832-14.294564-4.76349-5.447059-7.826246-10.553357-9.188266-15.31787-1.360997-4.762467-3.743254-9.870812-7.14677-15.315824-3.403516-5.443989-5.104251-8.507768-5.104251-9.18929-0.681522-0.679475-1.360997-1.020236-2.042519-1.020236l-3.061732 2.043542c-22.462594 58.539254-47.64923 101.082186-75.55786 127.630842 8.167007 7.485485 20.080338 14.634302 35.736922 21.442358 15.655562 6.80601 28.589129 14.633279 38.799678 23.482831 10.211573 8.847505 17.017582 21.441335 20.421098 37.779442-0.681522 1.360997-1.360997 4.423753-2.042519 9.188266-0.679475 4.76349-2.041496 8.167007-4.084015 10.210549-24.505114 36.759205-82.024132 55.137785-172.557054 55.137785-19.7406 0-40.501436-1.701758-62.283532-5.104251-21.782096-3.403516-40.501436-7.145747-56.158021-11.233855-15.655562-4.084015-35.397185-9.870812-59.220776-17.358343-6.126534-2.040473-10.55131-3.40147-13.274328-4.082992-5.445012-1.362021-14.294564-2.382257-26.546609-3.063779-12.253068-0.679475-19.739577-0.679475-22.463618 0-15.655562 17.019629-39.818891 29.27065-72.494081 36.759205-32.673144 7.487531-64.664765 11.232832-95.977935 11.232832-13.614066 0-26.88737-0.340761-39.820937-1.020236-12.933567-0.681522-30.631648-2.384303-53.094242-5.106298-22.463618-2.721994-41.522696-6.465249-57.17928-11.231809-15.655562-4.765537-29.951149-12.593829-42.883693-23.484877-12.933567-10.891048-19.059078-22.802332-18.378579-35.735899 0-15.657608 2.042519-26.88737 6.126534-33.695427 4.084015-6.804986 11.912307-16.338107 23.483854-28.589129 4.084015-0.681522 11.571546-3.062755 22.463618-7.14677 10.891048-4.082992 20.421098-6.125511 28.589129-6.125511 1.362021 0 4.084015-0.679475 8.16803-2.042519 0.680499-0.679475 1.02126-1.360997 1.02126-2.040473l-1.02126-2.043542c-18.378579-4.082992-38.799678-23.823592-61.262272-59.21873-22.463618-35.398208-36.418444-65.348334-41.863457-89.854471l-3.063779-1.020236c-1.362021 0-3.743254 3.741207-7.147794 11.231809-6.80601 15.655562-17.016559 29.612435-30.631648 41.862433-13.614066 12.253068-28.248368 19.399839-43.904952 21.442358l-1.02126 0c-1.362021 0-2.382257-0.679475-3.062755-2.040473-0.680499-1.364067-1.701758-2.384303-3.063779-3.063779-8.848529-21.10262-13.274328-40.160675-13.274328-57.178257C11.664156 621.594047 59.654146 533.101597 155.632081 460.947254L155.632081 460.947254z" fill="#272636"></path></g></g></svg>