<?xml version="1.0" standalone="no"?><!DOCTYPE svg PUBLIC "-//W3C//DTD SVG 1.1//EN" "http://www.w3.org/Graphics/SVG/1.1/DTD/svg11.dtd"><svg width="200.1953125" height="200" viewBox="0 0 200.1953125 200" version="1.1" xmlns="http://www.w3.org/2000/svg" xmlns:xlink="http://www.w3.org/1999/xlink"><defs><style type="text/css"><![CDATA[

]]></style></defs><g class="transform-group"><g transform="scale(0.1953125, 0.1953125)"><path d="M870.641189 556.904723c0-88.044242-91.442642-159.414733-204.446345-159.414733-112.89728 0-204.446345 71.370491-204.446345 159.414733 0 87.513146 90.487897 158.458965 202.534809 159.308309 48.748261 81.991386 93.460602 66.272379 93.460602 66.272379s-34.83539-23.152303-38.446637-71.688739C806.493194 692.530656 870.641189 630.612445 870.641189 556.904723zM598.223776 532.053732c-13.169951 0-23.896246-10.727319-23.896246-23.896246 0-13.169951 10.727319-23.896246 23.896246-23.896246 13.169951 0 23.896246 10.726296 23.896246 23.896246C622.120023 521.326413 611.393727 532.053732 598.223776 532.053732zM729.175247 532.053732c-13.275351 0-23.896246-10.727319-23.896246-23.896246 0-13.169951 10.620895-23.896246 23.896246-23.896246 13.169951 0 23.789823 10.726296 23.789823 23.896246C752.96507 521.326413 742.345198 532.053732 729.175247 532.053732zM641.343853 369.664248C607.038536 294.364261 514.10903 240.306064 404.716574 240.306064c-138.598638 0-250.964822 86.770226-250.964822 193.719027 0 91.65549 82.522482 168.44234 193.294354 188.515514-2.124384 63.405075-47.579645 93.673449-47.579645 93.673449s57.351196 20.286022 118.844735-88.469937c0 0-0.319272-0.105401-0.849344-0.211824 11.57564-0.531096 23.046902-1.593288 34.19787-3.185552-14.868639-23.577998-23.258727-50.0233-23.258727-78.06189C428.399973 452.186729 522.499118 375.293455 641.343853 369.664248zM329.84126 401.632333c-17.524119 0-31.649837-14.125719-31.649837-31.54239 0-17.524119 14.125719-31.649837 31.649837-31.649837 17.417695 0 31.54239 14.125719 31.54239 31.649837C361.384673 387.506615 347.259978 401.632333 329.84126 401.632333zM457.500754 370.089943c0-17.524119 14.125719-31.649837 31.649837-31.649837 17.417695 0 31.54239 14.125719 31.54239 31.649837 0 17.417695-14.124695 31.54239-31.54239 31.54239C471.626473 401.632333 457.500754 387.506615 457.500754 370.089943zM512.270149 0c-283.033191 0-512.270153 229.236961-512.270153 512 0 282.760992 229.236961 512 512.270153 512 282.760992 0 512-229.239008 512-512C1024.270149 229.236961 795.031141 0 512.270149 0zM512.270149 959.931822c-247.620657 0-448.202998-200.584388-448.202998-447.932846 0-247.350504 200.582341-447.932846 448.202998-447.932846 247.348458 0 447.932846 200.582341 447.932846 447.932846C960.202994 759.348458 759.618607 959.931822 512.270149 959.931822z" fill="#272636"></path></g></g></svg>