<?xml version="1.0" encoding="utf-8"?>
<!-- Generator: Adobe Illustrator 17.0.0, SVG Export Plug-In . SVG Version: 6.00 Build 0)  -->
<!DOCTYPE svg PUBLIC "-//W3C//DTD SVG 1.1//EN" "http://www.w3.org/Graphics/SVG/1.1/DTD/svg11.dtd">
<svg version="1.1" id="图层_1" xmlns="http://www.w3.org/2000/svg" xmlns:xlink="http://www.w3.org/1999/xlink" x="0px" y="0px"
	 width="200px" height="200px" viewBox="0 0 200 200" style="enable-background:new 0 0 200 200;" xml:space="preserve">
<path style="fill-rule:evenodd;clip-rule:evenodd;fill:#272536;" d="M101.4,6.1c-51.6,0-93.5,42-93.5,93.5s42,93.5,93.5,93.5
	c51.6,0,93.5-42,93.5-93.5C195,48.1,153,6.1,101.4,6.1L101.4,6.1z M101.4,181.5c-45.1,0-81.9-36.7-81.9-81.9s36.7-81.9,81.9-81.9
	c45.1,0,81.9,36.7,81.9,81.9C183.3,144.8,146.6,181.5,101.4,181.5L101.4,181.5z M143.6,92.4L92.5,61.1l-0.8-0.4
	c-0.4-0.2-4.4-1.8-8.6-1.8c-7.3,0-12,4.8-12,12.3v59.4l0.3,0.9c1.1,3.2,4.8,8.7,11.6,8.7l0,0c2.2,0,4.4-0.6,6.9-1.8l50.5-28.6
	l0.5-0.3c3.5-2.5,7.2-8.7,3.4-15.6L143.6,92.4L143.6,92.4z M104.7,101.2C104.7,101.2,104.7,101.2,104.7,101.2
	C104.7,101.2,104.7,101.2,104.7,101.2L104.7,101.2C104.7,101.2,104.7,101.2,104.7,101.2C104.7,101.2,104.7,101.2,104.7,101.2
	L104.7,101.2L104.7,101.2L104.7,101.2z"/>
</svg>
