<?xml version="1.0" standalone="no"?><!DOCTYPE svg PUBLIC "-//W3C//DTD SVG 1.1//EN" "http://www.w3.org/Graphics/SVG/1.1/DTD/svg11.dtd"><svg width="200" height="200" viewBox="0 0 200 200" version="1.1" xmlns="http://www.w3.org/2000/svg" xmlns:xlink="http://www.w3.org/1999/xlink"><defs><style type="text/css"><![CDATA[

]]></style></defs><g class="transform-group"><g transform="scale(0.1953125, 0.1953125)"><path d="M266.827093 524.42112c0 0-0.129707-34.075307-10.960213-34.075307L180.36736 490.345813c2.512213-39.099733 3.167573-74.451627 3.167573-106.011307l73.826987 0c0 0 2.843307-32.556373-12.376747-32.180907L117.275307 352.1536c5.031253-18.930347 11.359573-38.478507 18.930347-58.68544 0 0-34.730667 0-46.57152 31.146667-4.887893 12.86144-19.060053 62.255787-44.291413 112.728747 8.502613-0.91136 36.608-1.682773 53.159253-32.04096 3.048107-8.475307 3.628373-9.608533 7.41376-20.968107l41.64608 0c0 15.141547 0.218453 36.06528-1.024 61.289813 0 24.029867-0.699733 35.2256-1.399467 44.724907L69.686613 490.349227c-16.940373 0-22.452907 34.075307-22.452907 34.075307l94.651733 0c-6.331733 71.932587-40.40704 131.887787-102.222507 179.838293 10.082987 10.07616 60.371627-0.365227 73.598293-13.64992 0 0 33.160533-30.132907 51.34336-99.93216 23.958187 27.78112 44.15488 52.38784 60.576427 73.826987 7.574187 10.113707 17.03936 20.82816 17.03936 20.82816s11.68384-39.74144-1.529173-58.641067c-10.93632-12.878507-40.768853-47.988053-53.367467-60.624213l-20.82816 17.03936c6.301013-20.165973 10.093227-39.755093 11.362987-58.682027L266.827093 524.427947zM285.75744 660.619947l33.798827 0.006827 10.830507 37.819733c0 0 51.838293-37.819733 60.921173-37.819733 9.086293 0 35.505493-0.006827 35.505493-0.006827l35.969707 0 0-313.91744L285.75744 346.702507 285.75744 660.619947zM321.727147 380.777813l105.086293 0 0 245.773653-40.311467 0-40.901973 26.15296-6.68672-26.10176-17.186133-0.0512L321.727147 380.777813zM830.952107 467.623253l30.293333 22.719147c32.805547-40.372907 56.132267-71.28064 70.045013-92.760747 0 0-24.098133-22.02624-42.775893-6.208853C880.612693 404.10112 857.460053 438.60992 830.952107 467.623253zM679.509333 469.521067c-1.26976-1.252693-3.150507-3.7888-5.676373-7.574187-23.988907-32.79872-34.727253-51.63008-48.896-64.617813-14.175573-12.98432-41.966933 4.037973-41.966933 4.037973 15.14496 18.930347 32.80896 43.54048 53.00224 73.8304 5.021013 7.574187 8.8064 13.25056 11.359573 17.03936L679.509333 469.521067 679.509333 469.521067zM984.292693 509.692587c-31.16032 0-206.339413 1.471147-206.339413 1.471147l0-159.013547c7.570773 0 19.5584-0.617813 35.966293-1.890987 64.3584-3.7888 110.414507-6.304427 138.192213-7.574187 0 0 19.23072-42.806613-0.935253-52.65408-14.544213 0-16.899413 5.819733-36.450987 7.20896-8.06912 0.57344-260.113067 25.961813-365.83424 28.40576 2.5088 13.89568 11.554133 23.763627 24.552107 31.10912 24.582827 5.372587 36.027733 2.348373 77.6704 1.0752 39.099733-2.512213 68.765013-3.785387 88.971947-3.785387l0 157.119147-210.131627 0c0 0 7.154347 35.969707 34.92864 35.969707l175.199573 0 0 111.694507c0 21.998933-17.6128 34.624853-38.539947 33.252693-22.15936 0.187733-41.058987-1.805653-65.631573-2.839893 3.147093 6.249813 9.966933 22.654293 30.405973 34.37568 15.547733 7.5776 25.45664 10.349227 40.966827 10.349227 46.527147 0 71.89504-27.200853 70.659413-71.359147l0-115.469653 192.641707 0C985.849173 547.13344 984.292693 509.692587 984.292693 509.692587z" fill="#272636"></path></g></g></svg>